<svg id="Layer_1" data-name="Layer 1" xmlns="http://www.w3.org/2000/svg" xmlns:xlink="http://www.w3.org/1999/xlink" viewBox="0 0 500 160">
  <defs>
    <style>
      .cls-1 {
        fill: #070707;
        opacity: 0.16;
      }

      .cls-2 {
        fill: url(#linear-gradient);
      }

      .cls-10, .cls-3, .cls-4, .cls-9 {
        opacity: 0.82;
      }

      .cls-3 {
        fill: url(#linear-gradient-2);
      }

      .cls-4 {
        fill: url(#linear-gradient-3);
      }

      .cls-11, .cls-5 {
        opacity: 0.66;
      }

      .cls-5 {
        fill: url(#radial-gradient);
      }

      .cls-6 {
        opacity: 0.62;
      }

      .cls-12, .cls-13, .cls-7, .cls-8 {
        opacity: 0.47;
      }

      .cls-7 {
        fill: url(#linear-gradient-4);
      }

      .cls-8 {
        fill: url(#linear-gradient-5);
      }

      .cls-9 {
        fill: url(#linear-gradient-6);
      }

      .cls-10 {
        fill: url(#linear-gradient-7);
      }

      .cls-11 {
        fill: url(#radial-gradient-2);
      }

      .cls-12 {
        fill: url(#linear-gradient-8);
      }

      .cls-13 {
        fill: url(#linear-gradient-9);
      }

      .cls-14 {
        opacity: 0.97;
      }

      .cls-15 {
        fill: url(#linear-gradient-10);
      }

      .cls-16 {
        fill: url(#linear-gradient-11);
      }

      .cls-17, .cls-18 {
        opacity: 0.95;
      }

      .cls-17 {
        fill: url(#linear-gradient-12);
      }

      .cls-18 {
        fill: url(#linear-gradient-13);
      }

      .cls-19 {
        fill: url(#linear-gradient-14);
      }

      .cls-20 {
        fill: url(#linear-gradient-15);
      }
    </style>
    <linearGradient id="linear-gradient" x1="1983.49" y1="9.71" x2="1825.81" y2="282.82" gradientTransform="matrix(-1, 0, 0, 1, 2178.7, 0)" gradientUnits="userSpaceOnUse">
      <stop offset="0.06" stop-color="#ffea7f"/>
      <stop offset="0.19" stop-color="#ffc53f"/>
      <stop offset="0.51" stop-color="#fce12c"/>
      <stop offset="0.77" stop-color="#f9c632"/>
    </linearGradient>
    <linearGradient id="linear-gradient-2" x1="2027.08" y1="109.18" x2="2108.76" y2="109.18" gradientTransform="matrix(-1, 0, 0, 1, 2178.7, 0)" gradientUnits="userSpaceOnUse">
      <stop offset="0" stop-color="#050505"/>
      <stop offset="1"/>
    </linearGradient>
    <linearGradient id="linear-gradient-3" x1="2027.53" y1="109.28" x2="2109.41" y2="109.28" xlink:href="#linear-gradient-2"/>
    <radialGradient id="radial-gradient" cx="2068.23" cy="110.27" r="23.26" gradientTransform="matrix(-1.01, 0, 0, 1, 2190.58, 0.26)" gradientUnits="userSpaceOnUse">
      <stop offset="0" stop-color="#f0ff15"/>
      <stop offset="0.41" stop-color="#fce12c"/>
      <stop offset="0.77" stop-color="#f9c632"/>
    </radialGradient>
    <linearGradient id="linear-gradient-4" x1="2039.82" y1="87.14" x2="2101.27" y2="87.14" gradientTransform="matrix(-1, 0, 0, 1, 2178.7, 0)" gradientUnits="userSpaceOnUse">
      <stop offset="0" stop-color="#050505"/>
      <stop offset="0.69" stop-color="#a49b9c"/>
      <stop offset="1" stop-color="#e5d8da"/>
    </linearGradient>
    <linearGradient id="linear-gradient-5" x1="838.01" y1="1919.38" x2="874.17" y2="1919.38" gradientTransform="matrix(0.9, -0.44, -0.44, -0.9, 193.14, 2234.71)" xlink:href="#linear-gradient-4"/>
    <linearGradient id="linear-gradient-6" x1="1798.33" y1="104.76" x2="1879.76" y2="104.76" xlink:href="#linear-gradient-2"/>
    <linearGradient id="linear-gradient-7" x1="1798.78" y1="104.86" x2="1880.41" y2="104.86" xlink:href="#linear-gradient-2"/>
    <radialGradient id="radial-gradient-2" cx="1839.59" cy="105.93" r="23.33" gradientTransform="matrix(-1, 0, 0, 1, 2178.7, 0)" gradientUnits="userSpaceOnUse">
      <stop offset="0.21" stop-color="#fce12c"/>
      <stop offset="0.5" stop-color="#f9c632"/>
    </radialGradient>
    <linearGradient id="linear-gradient-8" x1="1811.03" y1="82.63" x2="1872.29" y2="82.63" xlink:href="#linear-gradient-4"/>
    <linearGradient id="linear-gradient-9" x1="1045.78" y1="1823.36" x2="1081.91" y2="1823.36" gradientTransform="matrix(0.9, -0.44, -0.44, -0.9, 193.14, 2234.71)" xlink:href="#linear-gradient-4"/>
    <linearGradient id="linear-gradient-10" x1="1844.61" y1="69.94" x2="1844.31" y2="69.57" gradientTransform="matrix(-1.01, -0.08, -0.08, 0.96, 2256.27, 124.51)" gradientUnits="userSpaceOnUse">
      <stop offset="0" stop-color="#f0ff15"/>
      <stop offset="0.26" stop-color="#fce12c"/>
      <stop offset="0.9" stop-color="#f9c632"/>
    </linearGradient>
    <linearGradient id="linear-gradient-11" x1="179.89" y1="113.51" x2="314.96" y2="-21.56" gradientTransform="matrix(1, 0, 0, 1, 0, 0)" xlink:href="#linear-gradient-10"/>
    <linearGradient id="linear-gradient-12" x1="1969.76" y1="59.71" x2="1969.76" y2="9.63" gradientTransform="matrix(-1, 0, 0, 1, 2178.7, 0)" gradientUnits="userSpaceOnUse">
      <stop offset="0.03" stop-color="#f6f6f6"/>
      <stop offset="0.32" stop-color="#8e8e8e"/>
      <stop offset="0.53" stop-color="#535353"/>
      <stop offset="0.78" stop-color="#131313"/>
    </linearGradient>
    <linearGradient id="linear-gradient-13" x1="3794.84" y1="1241.75" x2="3791.89" y2="1294.91" gradientTransform="matrix(1, 0.06, 0.06, -1, -3714.33, 1082.19)" gradientUnits="userSpaceOnUse">
      <stop offset="0.03" stop-color="#f6f6f6"/>
      <stop offset="0.44" stop-color="#8e8e8e"/>
      <stop offset="0.98" stop-color="#3e3e3f"/>
    </linearGradient>
    <linearGradient id="linear-gradient-14" x1="2107.18" y1="1262.32" x2="2172.55" y2="1236.95" gradientTransform="matrix(-0.36, -0.93, -0.93, 0.36, 2231.83, 1564.15)" gradientUnits="userSpaceOnUse">
      <stop offset="0" stop-color="#f6f6f6"/>
      <stop offset="0.16" stop-color="#8e8e8e"/>
      <stop offset="0.29" stop-color="#535353"/>
      <stop offset="0.44" stop-color="#131313"/>
    </linearGradient>
    <linearGradient id="linear-gradient-15" x1="10.28" y1="85.48" x2="33.28" y2="125.32" gradientUnits="userSpaceOnUse">
      <stop offset="0" stop-color="#000b7f"/>
      <stop offset="0.77" stop-color="#f9c632"/>
    </linearGradient>
  </defs>
  <title>gul_bil</title>
  <path class="cls-1" d="M488.29,80.29l-3-1.92a2.58,2.58,0,0,1-.86-3.44l11.45-24.41c.31-.66-.31-1.24-1.22-1.13L402.91,60c-76.78-24.75-154.46-29.84-172-31.85-2.55-.29-7.31-.63-10,0a46.39,46.39,0,0,0-12.26,5.28l-1.23.67L207.3,34c-.76.41-1.47.82-2.08,1.21L147.53,66.82l-.05.05-.85-.05c-4.17-.23-35.94,3.31-37.54,3.51a1.06,1.06,0,0,0-.3,0L98.37,72.1,71.11,77.38c-1,.2-7.14,2-8.63,2.64l-6.77,3.11C52,84.76,38,91.61,30.83,98.61c-2.21,2.08-3.8,4.18-4.29,6.19l-3.77,15.74a.68.68,0,0,0,0,.38l-1,4C18.66,138.2,32,148.82,51.41,148.44l43.89-.86c5.85,5.8,14.61,9.33,25.17,9.33a50.75,50.75,0,0,0,14.93-2.31A56.19,56.19,0,0,0,152,146.47l172.22-3.38c5.83,6.25,14.89,10.1,25.9,10.1A50.75,50.75,0,0,0,365,150.88a54.86,54.86,0,0,0,26.32-17.14l.23-.07c.4-.14,53.94.41,66.26-5.28,11.91-5.5,29.23-34.19,32.49-39.89A5.81,5.81,0,0,0,488.29,80.29Z"/>
  <path class="cls-2" d="M182.1,46.86C202.17,47.34,350,42.37,350,42.37l108.9-14.7a1.22,1.22,0,0,1,1.5,1.29l-5.6,27.75a3.75,3.75,0,0,0,1.68,3.92l3.48,2.18c3.41,2.14,5,5.82,4,9.32-1.88,6.48-12.33,39.1-22.93,45.36-10.95,6.46-64.62,5.84-65,6l-22.43,8.11a22.88,22.88,0,0,1-8.52,1.83L39.38,140.29c-19.27.43-35.2-11.65-35.2-26.71V90.66C4.18,80.86,23.67,68.44,28,66l6-3.54a70.4,70.4,0,0,1,8-3l26-6,10-2c.21,0,.44,0,.22,0s32.42-4.27,36.78-4c10.06.65,36.13.08,65.55-.63Z"/>
  <g>
    <ellipse class="cls-3" cx="110.77" cy="109.18" rx="40.84" ry="40.53"/>
    <g>
      <ellipse class="cls-4" cx="110.22" cy="109.28" rx="40.94" ry="40.63"/>
      <ellipse class="cls-5" cx="110.22" cy="110.34" rx="23.4" ry="23.22"/>
      <ellipse class="cls-6" cx="113.95" cy="95.64" rx="2.69" ry="2.67"/>
      <ellipse class="cls-6" cx="122.33" cy="100.98" rx="2.69" ry="2.67"/>
      <ellipse class="cls-6" cx="124.58" cy="111.52" rx="2.69" ry="2.67"/>
      <ellipse class="cls-6" cx="120.97" cy="121.03" rx="2.69" ry="2.67"/>
      <ellipse class="cls-6" cx="102.25" cy="96.55" rx="2.69" ry="2.67"/>
      <ellipse class="cls-6" cx="96.87" cy="102.39" rx="2.69" ry="2.67"/>
      <ellipse class="cls-6" cx="94.98" cy="111.06" rx="2.69" ry="2.67"/>
      <ellipse class="cls-6" cx="100.35" cy="119.75" rx="2.69" ry="2.67"/>
      <ellipse class="cls-6" cx="109.76" cy="124.49" rx="2.69" ry="2.67"/>
      <path class="cls-7" d="M108.91,75.21c14.55-1,23.73,3,30,13.77l-.08.07c-6.11-7-16.88-8.58-28.34-8.58-13.86,0-27.54,5.86-32.71,18.76-.1,0-.21,0-.32,0C80.48,85.31,88.74,76.63,108.91,75.21Z"/>
      <path class="cls-8" d="M128,140.67c-7.45,4.26-13.37,4.46-19.47.35l0-.06c5,2.15,11.17.24,17.26-2.69,7.35-3.54,13.08-10.14,12.48-18.31l.18-.07C140.42,128,138.29,134.76,128,140.67Z"/>
    </g>
  </g>
  <g>
    <circle class="cls-9" cx="339.65" cy="104.76" r="40.71"/>
    <g>
      <circle class="cls-10" cx="339.1" cy="104.86" r="40.81"/>
      <circle class="cls-11" cx="339.1" cy="105.93" r="23.33"/>
      <circle class="cls-6" cx="342.82" cy="91.17" r="2.68"/>
      <circle class="cls-6" cx="351.17" cy="96.53" r="2.68"/>
      <circle class="cls-6" cx="353.41" cy="107.12" r="2.68"/>
      <circle class="cls-6" cx="349.81" cy="116.67" r="2.68"/>
      <circle class="cls-6" cx="331.15" cy="92.08" r="2.68"/>
      <circle class="cls-6" cx="325.79" cy="97.94" r="2.68"/>
      <circle class="cls-6" cx="323.9" cy="106.65" r="2.68"/>
      <circle class="cls-6" cx="329.26" cy="115.39" r="2.68"/>
      <circle class="cls-6" cx="338.64" cy="120.15" r="2.68"/>
      <path class="cls-12" d="M337.8,70.64c14.5-1,23.65,3,29.87,13.83l-.08.07c-6.1-7-16.83-8.61-28.26-8.61-13.81,0-27.45,5.88-32.6,18.84l-.33,0C309.44,80.79,317.68,72.07,337.8,70.64Z"/>
      <path class="cls-13" d="M356.78,136.39c-7.43,4.28-13.33,4.49-19.4.36a.14.14,0,0,1,0-.06c5,2.16,11.14.24,17.2-2.7,7.33-3.56,13-10.19,12.45-18.39l.18-.07C369.21,123.72,367.09,130.46,356.78,136.39Z"/>
    </g>
  </g>
  <g class="cls-14">
    <path class="cls-15" d="M380.33,43.55l-.45-.2.48-.19Z"/>
    <path class="cls-16" d="M115.91,47.68,169,9.5a33.6,33.6,0,0,1,11-6c2.54-.72,7.38-.33,10,0C208.74,5.86,292.91,12,378.9,42.93c.34.12.65.28,1,.42l-1.07.42c-100.85,41.54-262,6.07-262,6.07A1.23,1.23,0,0,1,115.91,47.68Z"/>
  </g>
  <path class="cls-17" d="M171.46,56.75l76.68,3a7.9,7.9,0,0,0,8.31-7.08l2.19-24.85A9,9,0,0,0,251,18.43L192.64,9.78c-4.16-.62-8.12.73-10.24,3.54L160.93,41.74C156.1,48.13,162,56.39,171.46,56.75Z"/>
  <path class="cls-18" d="M146.26,49.47l23-27.19c3.34-3.94,2.26-8.89-1.44-12.16-.66.47-1.27.94-1.79,1.38l-50.1,36a.49.49,0,0,0,.19.88l19.71,4C140,53.28,144,52.15,146.26,49.47Z"/>
  <path class="cls-19" d="M311,52.49c12.63-2.7,9.64-13.09,7-14l-35.9-12.44c-3.72-1.27-13.62-5.26-13.94-1.34l-2.45,26.65c-.33,4.19-2.05,7.66,2.07,6.84"/>
  <path class="cls-20" d="M5,109.49H30.23a5.82,5.82,0,0,0,5.82-5.83v-1.61A22.56,22.56,0,0,0,13.49,79.49h-3C6.82,83.12,4.06,87,4.06,90.66v17.9A.93.93,0,0,0,5,109.49Z"/>
</svg>
